<svg width="110" height="31" viewBox="0 0 110 31" fill="none" xmlns="http://www.w3.org/2000/svg">
<path d="M11.0849 0.0162125C11.0616 0.0302391 10.7867 0.0676441 10.4792 0.109726C9.76635 0.198565 9.38431 0.264025 9.28181 0.320133C9.23522 0.348188 9.16999 0.36689 9.13272 0.36689C8.92306 0.36689 7.84217 0.78303 7.19456 1.11033C5.87605 1.77896 4.70663 2.7328 3.78414 3.89706C3.45335 4.30852 2.81972 5.3138 2.55415 5.83748C2.33052 6.28167 1.97643 7.03914 1.97643 7.08122C1.97643 7.09525 1.9345 7.19344 1.88791 7.30098C1.79007 7.52074 1.43598 8.53069 1.37076 8.78318C1.34746 8.87202 1.29621 9.06372 1.25428 9.20399C0.942123 10.2794 0.5694 12.3461 0.438947 13.7394C0.415652 13.9826 0.383038 14.2351 0.369061 14.2912C0.331789 14.4361 0.219972 15.8996 0.136109 17.293C0.103496 17.8962 0.0569052 18.5087 0.0382691 18.6489C0.0149738 18.7892 0.000996705 20.22 0.000996705 21.8284C-0.00366234 24.4094 0.00565575 24.8209 0.0802004 25.3352C0.126791 25.6578 0.182699 25.9945 0.205995 26.0833C0.22929 26.1722 0.280539 26.406 0.322471 26.5977C0.5694 27.7011 1.05394 28.7158 1.68291 29.4358C2.11154 29.9268 2.88494 30.3897 3.6071 30.586C4.18016 30.7403 4.33391 30.759 4.91629 30.759C5.53128 30.759 5.63844 30.745 6.2348 30.5627C7.65581 30.1278 8.75068 28.9823 9.28181 27.3692C9.71044 26.0787 9.75703 25.3118 9.74771 20.3322C9.74306 17.3912 9.75237 16.4747 9.8176 15.4788C9.85953 14.8008 9.90612 14.2304 9.9201 14.207C9.93408 14.1883 9.96669 14.006 9.99464 13.8049C10.1763 12.4817 10.8053 11.3268 11.6393 10.7984C12.0959 10.5085 12.5105 10.401 13.0603 10.429C13.6334 10.4618 13.8849 10.5833 14.3695 11.0743C14.8773 11.5839 15.1336 12.1263 15.2827 12.9867C15.3479 13.3701 15.3525 13.7535 15.3292 15.9557C15.3153 17.3491 15.2873 19.2007 15.2733 20.0797C15.2407 21.936 15.3013 22.6607 15.5389 23.3808C15.8278 24.2411 16.3076 24.9004 16.9646 25.3492C17.4491 25.6765 18.3436 25.9337 19.0332 25.9477C19.322 25.9524 19.8858 25.8682 20.0116 25.8028C20.0582 25.7747 20.1327 25.756 20.1793 25.756C20.3331 25.756 21.0971 25.3446 21.372 25.1155C22.1361 24.4749 22.5787 23.5351 22.7744 22.123C22.8443 21.6367 22.8909 20.0563 22.9701 15.7968C22.9934 14.3005 23.0912 13.2017 23.231 12.7575C23.4919 11.9206 23.6876 11.5419 24.051 11.1584C24.5774 10.602 24.9595 10.4431 25.7608 10.4431C26.2827 10.4431 26.3386 10.4524 26.5995 10.5787C26.7812 10.6675 27.0002 10.8405 27.2284 11.0696C28.0345 11.8785 28.4258 12.9679 28.547 14.698C28.6308 15.9277 28.6168 18.5508 28.519 20.379C28.3839 22.8711 28.3699 24.1803 28.4584 25.2183C28.533 26.0459 28.6168 26.6117 28.7193 26.9483C28.7426 27.0232 28.8079 27.2476 28.8638 27.4393C28.9197 27.631 28.9802 27.8227 28.9989 27.8601C29.0175 27.8975 29.1014 28.0752 29.1899 28.2575C29.6139 29.1553 30.2568 29.8613 30.979 30.226C31.4495 30.4598 31.7058 30.544 32.3767 30.6702C33.0942 30.8058 33.4576 30.7824 34.2636 30.544C34.832 30.3756 35.5402 29.9361 35.9548 29.506C36.253 29.188 36.6816 28.5334 36.8028 28.2108C36.8494 28.0799 36.9006 27.9536 36.9193 27.9302C37.0357 27.7526 37.1289 27.3832 37.2873 26.5041C37.3758 26.0085 37.4224 24.6853 37.3945 23.4416C37.3758 22.7542 37.3758 22.7636 37.455 22.7636C37.5296 22.7636 37.6694 23.0394 37.7299 23.3013C37.7625 23.4509 37.9629 24.0073 38.0654 24.2364C38.098 24.3112 38.1679 24.4796 38.2145 24.6105C38.3589 24.9799 38.8434 25.901 39.0904 26.275C40.3809 28.2061 42.0955 29.5387 44.3504 30.3569C44.8396 30.5299 45.7295 30.731 46.2606 30.7824C46.4423 30.7965 46.666 30.8339 46.7638 30.8572C47.0667 30.9367 49.4521 30.918 49.9413 30.8292C51.2924 30.5907 52.0611 30.3429 53.2026 29.7771C54.8007 28.987 55.793 28.2155 56.7062 27.0559C57.0044 26.6771 57.4423 25.9945 57.6147 25.6391C57.68 25.5035 57.7498 25.4287 57.8011 25.4287C57.8756 25.4287 57.8849 25.4848 57.8849 26.0459C57.8849 27.0185 58.0527 27.9817 58.3276 28.6129C58.8354 29.7678 59.5902 30.3663 60.9366 30.6889C61.3979 30.8011 62.6744 30.8011 63.1264 30.6936C63.951 30.4925 64.3144 30.2962 64.8269 29.7771C65.6143 28.987 66.1221 27.7806 66.3644 26.1301C66.4809 25.3492 66.5042 24.1616 66.4949 19.9815C66.4809 15.6612 66.4855 15.5723 66.5834 14.8616C66.7558 13.6693 66.7651 13.6272 67.026 12.8277C67.1937 12.3274 67.4313 11.7943 67.6224 11.5091C67.7016 11.3969 67.7621 11.2847 67.7621 11.266C67.7621 11.2426 67.9485 11.0275 68.1768 10.7844C68.5076 10.4337 68.666 10.3075 68.9409 10.1625C69.2856 9.98952 69.2949 9.98952 69.7282 10.0082C70.1243 10.0269 70.1848 10.0456 70.4411 10.1999C70.7765 10.3963 71.1399 10.7657 71.3682 11.1304C71.4614 11.2753 71.5359 11.4109 71.5359 11.4296C71.5359 11.4437 71.5639 11.5232 71.6012 11.6026C71.6384 11.6868 71.713 11.9393 71.7689 12.1637C71.8667 12.5705 71.8667 12.6173 71.8574 16.9096C71.8434 21.4684 71.8528 21.6461 72.0578 22.3895C72.2488 23.0862 72.5423 23.5912 73.0175 24.0354C73.558 24.5403 74.1031 24.7975 74.9603 24.9425C75.3657 25.0126 75.4868 25.0126 75.8689 24.9612C77.22 24.7882 78.1378 24.0868 78.5897 22.8851C78.9298 21.9781 78.9205 22.1698 78.9205 17.293C78.9205 12.4676 78.9112 12.6593 79.2187 11.8598C79.6101 10.8498 80.253 10.2701 81.1848 10.0924C81.7765 9.97549 82.5919 10.2607 83.0811 10.747C83.6355 11.3081 84.0035 12.131 84.1899 13.2485C84.2738 13.7254 84.2784 14.0808 84.2784 18.2983C84.2784 23.4369 84.2831 23.5631 84.6372 24.9144C85.0472 26.4995 86.0256 28.0144 87.3022 29.0477C87.8706 29.506 88.2992 29.7631 89.1238 30.1325C89.4733 30.2868 90.2653 30.5346 90.7778 30.6468C91.7981 30.8713 93.3729 30.9882 94.2767 30.9087C94.9942 30.8432 95.9819 30.6796 96.3454 30.572C96.4246 30.5486 96.6435 30.4832 96.8346 30.4271C98.2462 30.0156 99.6486 29.1553 100.711 28.0612C101.028 27.7339 101.489 27.0746 101.675 26.6771C101.848 26.3171 101.89 26.406 101.899 27.1868C101.918 28.2996 102.029 28.7345 102.477 29.4031C102.905 30.0437 103.669 30.5673 104.531 30.8152C104.941 30.9321 106.055 30.9554 106.479 30.8526C106.959 30.7403 107.415 30.6047 107.439 30.5627C107.453 30.544 107.494 30.5253 107.532 30.5253C107.741 30.5253 108.515 29.9081 108.874 29.4545C109.256 28.9682 109.456 28.5474 109.68 27.7432C109.885 26.9998 109.88 25.209 109.67 22.7168C109.633 22.2679 109.591 21.8238 109.577 21.7349C109.563 21.6461 109.535 21.2673 109.507 20.8933C109.484 20.5192 109.447 19.9394 109.419 19.6075C109.33 18.4292 109.27 17.2556 109.223 15.75C109.148 13.0895 109.004 10.9808 108.836 10.0456C108.65 9.02164 108.538 8.67096 108.175 7.99766C107.564 6.86146 106.796 6.17881 105.729 5.8141C105.239 5.65045 105.151 5.63175 104.555 5.61304C104.056 5.59902 103.818 5.61304 103.506 5.67383C103.283 5.72059 103.078 5.7767 103.054 5.7954C103.026 5.8141 102.952 5.84216 102.887 5.85151C102.747 5.87956 102.276 6.12737 102.053 6.2957C101.14 6.98303 100.473 8.05844 100.17 9.34427C100.045 9.87262 99.9701 10.8732 99.9608 12.1029C99.9468 14.1088 99.8676 17.3304 99.8163 17.9663C99.7698 18.5367 99.7371 18.7191 99.5508 19.3503C99.3504 20.033 98.796 20.7577 98.209 21.113C97.198 21.7209 95.9027 21.5666 95.1293 20.7483C94.71 20.3041 94.3932 19.6449 94.2721 18.9669C94.2441 18.8313 94.2069 18.6256 94.1789 18.5087C94.1556 18.3918 94.137 17.639 94.1323 16.8394C94.1323 15.2123 94.0205 11.9112 93.9459 11.3314C93.918 11.1257 93.8761 10.7563 93.8528 10.5132C93.7782 9.71832 93.6152 8.79253 93.4381 8.12858C93.3869 7.93688 93.331 7.72647 93.317 7.66101C93.2983 7.59555 93.2704 7.50204 93.2471 7.4506C93.2285 7.39917 93.1446 7.16538 93.0607 6.93627C92.907 6.50611 92.5203 5.6785 92.2734 5.23899C91.4394 3.78484 90.0789 2.34004 88.8163 1.57323C87.9265 1.03084 86.7198 0.553919 85.7693 0.36689C84.0641 0.0302391 82.331 0.0676441 80.7376 0.469757C80.5326 0.521189 80.3276 0.581974 80.2856 0.605352C80.239 0.628731 80.1785 0.647434 80.1505 0.647434C80.0806 0.647434 79.3119 0.951355 79.0603 1.0776C78.1099 1.55452 76.9265 2.50369 76.2649 3.30792C76.1204 3.49027 75.9714 3.63989 75.9387 3.63989C75.9061 3.63989 75.7477 3.45754 75.5847 3.22843C75.2352 2.74683 74.2429 1.73688 73.8142 1.43295C72.9243 0.792381 71.8854 0.408972 70.6973 0.273376C70.4783 0.245321 70.1895 0.203241 70.0497 0.179863C69.6397 0.105051 67.7668 0.123753 67.203 0.207916C64.8828 0.553919 63.3221 1.27398 61.6029 2.78891C60.6058 3.67262 59.5575 5.19223 58.9099 6.70249C58.8587 6.82873 58.7935 6.97835 58.7702 7.02979C58.6863 7.21214 58.444 7.87142 58.444 7.91817C58.444 7.94155 58.4161 8.02104 58.3788 8.0865C58.3276 8.18937 58.267 8.37172 58.1226 8.8767C58.076 9.02632 57.871 9.04502 57.8477 8.90007C57.7918 8.53537 57.4703 7.79193 57.1768 7.35709C56.9252 6.97835 56.6689 6.71651 56.2776 6.42662C55.8722 6.12737 55.7371 6.05256 55.3365 5.90294C54.5211 5.59434 53.7337 5.57564 52.774 5.85151C52.0425 6.06191 51.1759 6.71184 50.7287 7.38047C50.5703 7.61893 50.2907 8.19404 50.2907 8.28288C50.2907 8.31561 50.2721 8.36237 50.2534 8.38574C50.2115 8.4325 50.137 8.70837 49.9925 9.34427C49.8481 9.95679 49.7829 11.0275 49.7549 13.1784C49.727 15.5022 49.7083 16.0633 49.6291 16.4514C49.4987 17.12 48.9908 17.7746 48.4318 17.9897C48.0311 18.1486 47.4766 18.144 47.062 17.9897C46.666 17.84 46.1675 17.3491 46.0044 16.9423L45.8926 16.6618L45.86 13.2485C45.8413 11.3689 45.8134 9.69962 45.7994 9.5313C45.5944 7.54412 44.7511 6.24894 43.3813 5.81878C42.785 5.62707 42.3237 5.58499 41.7693 5.66915C41.5038 5.71124 41.2615 5.76267 41.2335 5.78605C41.2056 5.80475 41.1124 5.83748 41.0239 5.85618C40.4648 5.95905 38.8761 6.98303 38.3263 7.59087C38.2191 7.70777 38.1073 7.80128 38.0794 7.79193C38.0467 7.78258 37.9163 7.4506 37.7858 7.05317C37.5063 6.21621 37.4877 6.16945 37.1708 5.51018C36.5186 4.1589 35.27 2.70007 34.026 1.82571C33.6393 1.5592 32.8426 1.06825 32.7913 1.06825C32.7774 1.06825 32.6562 1.01682 32.5258 0.956032C31.7337 0.586649 31.184 0.418324 30.1636 0.240646C29.4974 0.123753 27.2471 0.100374 26.5296 0.198565C25.0899 0.404297 24.5262 0.53054 23.7575 0.820435C22.5228 1.28333 21.5957 1.91455 20.6545 2.93854C20.4123 3.20037 20.1467 3.51832 20.0628 3.64457C19.979 3.77081 19.8765 3.87368 19.8439 3.87368C19.8066 3.87368 19.7087 3.77549 19.6295 3.64924C19.3686 3.26116 18.8422 2.66734 18.4508 2.31199C17.095 1.08695 15.5575 0.385593 13.6007 0.100374C13.1581 0.0395908 11.1827 -0.0305443 11.0849 0.0162125ZM43.4046 12.9633C43.9032 13.2485 44.2246 13.7581 44.3504 14.4595C44.3877 14.6886 44.4203 14.9458 44.4203 15.0346C44.4203 15.2637 44.2805 15.8388 44.1827 16.0259C44.0057 16.3578 43.6935 16.6618 43.372 16.8207C43.0785 16.9657 43.0319 16.975 42.7011 16.9563C42.3797 16.9376 42.3144 16.9143 42.0768 16.76C41.4758 16.3578 41.159 15.7173 41.159 14.9037C41.159 14.1883 41.4805 13.4823 41.9557 13.1503C42.4728 12.7903 42.9807 12.7248 43.4046 12.9633ZM53.8549 12.9399C54.591 13.2906 55.0057 14.0621 54.9311 14.9458C54.8659 15.7593 54.4093 16.5168 53.8409 16.7693C53.5986 16.8722 53.0209 16.8675 52.7973 16.76C52.3686 16.5495 52.0332 16.1334 51.8701 15.6051C51.7397 15.1796 51.7443 14.3146 51.8841 13.9405C52.2335 13.0054 53.0861 12.5705 53.8549 12.9399ZM53.0582 19.023C53.2539 19.0978 53.594 19.4438 53.6965 19.6729C53.8735 20.0704 53.8223 20.4678 53.5194 21.0569C52.8485 22.3568 51.954 23.2919 50.7473 23.9512C50.4957 24.0915 50.286 24.171 49.4288 24.4515C48.7672 24.6666 46.9082 24.5824 46.0044 24.2972C45.4639 24.1289 44.7651 23.7922 44.2805 23.4696C43.1996 22.7542 42.2119 21.3562 42.1141 20.4117C42.0722 19.9768 42.1467 19.687 42.375 19.4298C42.7058 19.0511 43.1344 18.9342 43.5491 19.1118C43.8286 19.2334 43.9963 19.4578 44.234 20.0143C44.4809 20.5894 44.7511 20.9634 45.1005 21.2159C45.3941 21.4263 46.065 21.7723 46.3026 21.8331C46.3818 21.8518 46.6147 21.9173 46.8197 21.9734C47.1459 22.0669 47.3089 22.0809 48.101 22.0809C49.0794 22.0856 49.1819 22.0669 49.7782 21.791C50.4631 21.4731 51.0455 20.912 51.5254 20.0891C51.9307 19.4017 52.0285 19.2755 52.2848 19.1118C52.5131 18.9669 52.8206 18.9295 53.0582 19.023Z" fill="#3129A5"/>
</svg>
