<svg width="100" height="28" viewBox="0 0 100 28" fill="none" xmlns="http://www.w3.org/2000/svg">
<path d="M10.0771 0.0140762C10.056 0.0267448 9.80607 0.0605316 9.52653 0.0985413C8.8785 0.178782 8.53119 0.237907 8.43801 0.288586C8.39566 0.313925 8.33636 0.330818 8.30247 0.330818C8.11188 0.330818 7.12924 0.706686 6.54051 1.00231C5.34186 1.60623 4.27876 2.46777 3.44013 3.51936C3.13941 3.891 2.56338 4.79899 2.32196 5.272C2.11865 5.6732 1.79676 6.35736 1.79676 6.39537C1.79676 6.40804 1.75864 6.49673 1.71628 6.59386C1.62734 6.79236 1.30544 7.70457 1.24614 7.93263C1.22496 8.01287 1.17837 8.18602 1.14025 8.31272C0.856476 9.28406 0.517636 11.1507 0.399043 12.4093C0.377865 12.6289 0.348217 12.8569 0.33551 12.9076C0.301626 13.0385 0.199974 14.3604 0.123735 15.6189C0.094087 16.1637 0.051732 16.7169 0.03479 16.8436C0.0136126 16.9703 0.000906096 18.2626 0.000906096 19.7154C-0.0033294 22.0467 0.00514159 22.4183 0.0729095 22.8829C0.115264 23.1743 0.16609 23.4783 0.187268 23.5586C0.208445 23.6388 0.255036 23.85 0.293155 24.0231C0.517636 25.0198 0.958128 25.9362 1.52992 26.5866C1.91958 27.0301 2.62268 27.4482 3.27918 27.6255C3.80014 27.7649 3.93992 27.7818 4.46935 27.7818C5.02844 27.7818 5.12585 27.7691 5.668 27.6044C6.95982 27.2117 7.95516 26.177 8.43801 24.72C8.82768 23.5543 8.87003 22.8617 8.86156 18.364C8.85732 15.7076 8.8658 14.8798 8.92509 13.9803C8.96321 13.3679 9.00557 12.8527 9.01827 12.8316C9.03098 12.8147 9.06063 12.65 9.08604 12.4684C9.25122 11.2732 9.82302 10.2301 10.5812 9.75284C10.9962 9.491 11.3732 9.39387 11.873 9.4192C12.394 9.44877 12.6227 9.55857 13.0632 10.002C13.5248 10.4623 13.7578 10.9522 13.8933 11.7293C13.9526 12.0756 13.9569 12.4219 13.9357 14.4111C13.923 15.6696 13.8976 17.342 13.8849 18.1359C13.8552 19.8126 13.9103 20.4672 14.1263 21.1175C14.3889 21.8946 14.8251 22.4901 15.4223 22.8955C15.8628 23.1912 16.676 23.4234 17.3029 23.4361C17.5655 23.4403 18.078 23.3643 18.1924 23.3052C18.2347 23.2798 18.3025 23.2629 18.3448 23.2629C18.4846 23.2629 19.1792 22.8913 19.4291 22.6844C20.1237 22.1058 20.5261 21.2569 20.704 19.9815C20.7675 19.5423 20.8099 18.1148 20.8819 14.2675C20.9031 12.916 20.992 11.9236 21.1191 11.5224C21.3563 10.7664 21.5342 10.4243 21.8645 10.078C22.3431 9.57546 22.6904 9.43187 23.419 9.43187C23.8933 9.43187 23.9442 9.44032 24.1813 9.55435C24.3465 9.63459 24.5456 9.79085 24.7531 9.99779C25.4859 10.7284 25.8417 11.7124 25.9518 13.275C26.028 14.3857 26.0153 16.755 25.9264 18.4062C25.8035 20.6572 25.7908 21.8397 25.8713 22.7773C25.9391 23.5248 26.0153 24.0358 26.1085 24.3399C26.1297 24.4074 26.189 24.6102 26.2398 24.7833C26.2906 24.9565 26.3457 25.1296 26.3626 25.1634C26.3796 25.1972 26.4558 25.3577 26.5363 25.5224C26.9217 26.3332 27.5062 26.9709 28.1627 27.3004C28.5905 27.5115 28.8234 27.5875 29.4334 27.7016C30.0856 27.824 30.416 27.8029 31.1487 27.5875C31.6655 27.4355 32.3093 27.0385 32.6862 26.65C32.9573 26.3628 33.347 25.7715 33.4571 25.4801C33.4994 25.3619 33.546 25.2479 33.563 25.2267C33.6688 25.0663 33.7536 24.7326 33.8976 23.9387C33.978 23.491 34.0204 22.2958 33.995 21.1724C33.978 20.5516 33.978 20.5601 34.05 20.5601C34.1178 20.5601 34.2449 20.8093 34.2999 21.0458C34.3296 21.1809 34.5117 21.6835 34.6049 21.8904C34.6345 21.958 34.6981 22.11 34.7404 22.2283C34.8717 22.5619 35.3122 23.3939 35.5367 23.7317C36.7099 25.4759 38.2686 26.6795 40.3186 27.4186C40.7633 27.5749 41.5723 27.7565 42.0551 27.8029C42.2203 27.8156 42.4236 27.8494 42.5126 27.8705C42.7879 27.9423 44.9564 27.9254 45.4012 27.8451C46.6295 27.6298 47.3283 27.4059 48.366 26.8949C49.8188 26.1812 50.7209 25.4844 51.5511 24.437C51.8222 24.0949 52.2203 23.4783 52.377 23.1574C52.4363 23.0349 52.4999 22.9673 52.5464 22.9673C52.6142 22.9673 52.6227 23.018 52.6227 23.5248C52.6227 24.4032 52.7752 25.2732 53.0251 25.8433C53.4867 26.8865 54.1729 27.427 55.3969 27.7185C55.8162 27.8198 56.9768 27.8198 57.3876 27.7227C58.1373 27.5411 58.4677 27.3637 58.9336 26.8949C59.6494 26.1812 60.111 25.0916 60.3313 23.6008C60.4372 22.8955 60.4583 21.8228 60.4499 18.0473C60.4372 14.145 60.4414 14.0648 60.5303 13.4228C60.6871 12.3459 60.6955 12.3079 60.9327 11.5857C61.0852 11.1338 61.3012 10.6524 61.4749 10.3948C61.5469 10.2934 61.6019 10.1921 61.6019 10.1752C61.6019 10.154 61.7714 9.95978 61.9789 9.74017C62.2796 9.42343 62.4236 9.3094 62.6735 9.17848C62.9869 9.02222 62.9954 9.02222 63.3893 9.03911C63.7493 9.05601 63.8044 9.0729 64.0373 9.21227C64.3423 9.38964 64.6727 9.72328 64.8802 10.0527C64.9649 10.1836 65.0327 10.3061 65.0327 10.323C65.0327 10.3356 65.0581 10.4074 65.092 10.4792C65.1259 10.5553 65.1936 10.7833 65.2445 10.986C65.3334 11.3534 65.3334 11.3957 65.3249 15.2726C65.3122 19.3902 65.3207 19.5507 65.5071 20.2222C65.6807 20.8515 65.9475 21.3076 66.3796 21.7088C66.8709 22.1649 67.3664 22.3972 68.1458 22.5281C68.5143 22.5915 68.6244 22.5915 68.9717 22.545C70.2 22.3887 71.0344 21.7553 71.4452 20.6699C71.7544 19.8506 71.7459 20.0237 71.7459 15.6189C71.7459 11.2605 71.7375 11.4337 72.017 10.7115C72.3728 9.7993 72.9573 9.27562 73.8044 9.11513C74.3423 9.00955 75.0835 9.26717 75.5282 9.70638C76.0323 10.2132 76.3669 10.9565 76.5363 11.9658C76.6125 12.3966 76.6168 12.7175 76.6168 16.5269C76.6168 21.1682 76.621 21.2823 76.9429 22.5028C77.3156 23.9344 78.2051 25.3028 79.3656 26.2361C79.8823 26.65 80.272 26.8823 81.0217 27.2159C81.3393 27.3553 82.0594 27.5791 82.5253 27.6804C83.4529 27.8832 84.8844 27.9887 85.7061 27.9169C86.3584 27.8578 87.2563 27.71 87.5867 27.6129C87.6587 27.5918 87.8578 27.5326 88.0314 27.482C89.3148 27.1103 90.5897 26.3332 91.5553 25.345C91.8434 25.0494 92.2627 24.4539 92.4321 24.0949C92.5888 23.7697 92.6269 23.85 92.6354 24.5553C92.6523 25.5604 92.754 25.9531 93.1606 26.5571C93.5503 27.1356 94.2449 27.6086 95.0285 27.8325C95.4012 27.9381 96.4135 27.9592 96.7989 27.8663C97.2351 27.7649 97.6502 27.6424 97.6714 27.6044C97.6841 27.5875 97.7222 27.5706 97.7561 27.5706C97.9467 27.5706 98.6498 27.0132 98.9759 26.6035C99.3232 26.1643 99.5054 25.7842 99.7087 25.0578C99.895 24.3863 99.8908 22.7688 99.7002 20.5178C99.6663 20.1124 99.6282 19.7112 99.6155 19.631C99.6028 19.5507 99.5774 19.2086 99.552 18.8708C99.5308 18.5329 99.4969 18.0093 99.4715 17.7094C99.391 16.6451 99.336 15.5851 99.2936 14.2252C99.2258 11.8222 99.0945 9.91755 98.942 9.0729C98.7726 8.14801 98.671 7.83127 98.3406 7.22313C97.7858 6.19688 97.0869 5.58029 96.117 5.25088C95.6722 5.10307 95.5918 5.08617 95.0496 5.06928C94.5964 5.05661 94.3804 5.06928 94.0966 5.12418C93.8933 5.16641 93.707 5.21709 93.6858 5.23399C93.6604 5.25088 93.5926 5.27622 93.5333 5.28466C93.4063 5.31 92.9785 5.53383 92.7752 5.68587C91.945 6.30669 91.3393 7.27803 91.064 8.43941C90.9497 8.91664 90.8819 9.82041 90.8734 10.9311C90.8607 12.7429 90.7887 15.6527 90.7421 16.227C90.6998 16.7423 90.6701 16.907 90.5007 17.4771C90.3186 18.0937 89.8146 18.7483 89.2809 19.0693C88.3618 19.6183 87.1843 19.4789 86.4812 18.7399C86.1 18.3387 85.812 17.7432 85.7019 17.1308C85.6765 17.0083 85.6426 16.8225 85.6172 16.7169C85.596 16.6114 85.5791 15.9314 85.5748 15.2093C85.5748 13.7396 85.4732 10.758 85.4054 10.2343C85.38 10.0485 85.3419 9.71483 85.3207 9.49522C85.2529 8.77727 85.1047 7.94107 84.9437 7.34138C84.8971 7.16822 84.8463 6.97818 84.8336 6.91905C84.8167 6.85993 84.7913 6.77546 84.7701 6.72901C84.7531 6.68255 84.6769 6.47139 84.6007 6.26445C84.4609 5.87592 84.1094 5.1284 83.8849 4.73142C83.1267 3.418 81.89 2.11302 80.7421 1.42041C79.9332 0.930517 78.8362 0.499746 77.9721 0.330818C76.4219 0.0267448 74.8463 0.0605316 73.3978 0.423729C73.2114 0.470184 73.0251 0.525085 72.9869 0.546202C72.9446 0.567318 72.8895 0.584211 72.8641 0.584211C72.8006 0.584211 72.1017 0.858721 71.873 0.972748C71.009 1.40352 69.9331 2.26083 69.3317 2.98723C69.2004 3.15193 69.0649 3.28708 69.0352 3.28708C69.0056 3.28708 68.8616 3.12237 68.7133 2.91543C68.3957 2.48044 67.4935 1.56822 67.1038 1.29371C66.2949 0.715132 65.3503 0.368828 64.2703 0.246353C64.0712 0.221014 63.8086 0.183004 63.6816 0.161888C63.3088 0.0943165 61.6062 0.11121 61.0937 0.187227C58.9844 0.499746 57.5655 1.15012 56.0026 2.51845C55.0962 3.31664 54.1432 4.68919 53.5545 6.05329C53.5079 6.16732 53.4486 6.30246 53.4274 6.34892C53.3512 6.51362 53.1309 7.1091 53.1309 7.15133C53.1309 7.17245 53.1055 7.24424 53.0716 7.30337C53.0251 7.39628 52.97 7.56098 52.8387 8.01709C52.7963 8.15224 52.61 8.16913 52.5888 8.03821C52.538 7.7088 52.2457 7.0373 51.9789 6.64454C51.7502 6.30246 51.5172 6.06596 51.1614 5.80412C50.7929 5.53383 50.6701 5.46626 50.3059 5.33112C49.5647 5.05239 48.8489 5.03549 47.9763 5.28466C47.3114 5.47471 46.5236 6.06174 46.117 6.66566C45.973 6.88104 45.7188 7.4005 45.7188 7.48074C45.7188 7.51031 45.7019 7.55254 45.6849 7.57365C45.6468 7.61589 45.5791 7.86506 45.4478 8.43941C45.3165 8.99266 45.2572 9.95978 45.2317 11.9025C45.2063 14.0014 45.1894 14.5082 45.1174 14.8587C44.9988 15.4626 44.5371 16.0539 44.0289 16.2482C43.6646 16.3918 43.1606 16.3875 42.7836 16.2482C42.4236 16.113 41.9704 15.6696 41.8222 15.3022L41.7205 15.0488L41.6909 11.9658C41.6739 10.2681 41.6485 8.76038 41.6358 8.60835C41.4495 6.81347 40.6828 5.64364 39.4376 5.2551C38.8954 5.08195 38.4761 5.04394 37.9721 5.11996C37.7307 5.15797 37.5104 5.20442 37.485 5.22554C37.4596 5.24243 37.3749 5.272 37.2944 5.28889C36.7862 5.3818 35.3419 6.30669 34.8421 6.85571C34.7447 6.96129 34.643 7.04575 34.6176 7.0373C34.5879 7.02886 34.4694 6.72901 34.3508 6.37003C34.0966 5.61408 34.0797 5.57184 33.7917 4.97637C33.1987 3.75586 32.0636 2.43821 30.9327 1.64846C30.5812 1.40774 29.8569 0.964302 29.8103 0.964302C29.7976 0.964302 29.6875 0.917847 29.5689 0.862946C28.8489 0.52931 28.3491 0.377274 27.4215 0.216791C26.8158 0.11121 24.7701 0.0900936 24.1178 0.178782C22.809 0.364603 22.2965 0.47863 21.5977 0.740471C20.4753 1.15857 19.6324 1.72871 18.7768 2.65359C18.5566 2.89009 18.3152 3.17727 18.2389 3.2913C18.1627 3.40533 18.0695 3.49824 18.0399 3.49824C18.006 3.49824 17.917 3.40955 17.845 3.29552C17.6079 2.945 17.1292 2.40865 16.7735 2.08768C15.5409 0.981195 14.1432 0.347712 12.3643 0.0900936C11.9619 0.0351925 10.1661 -0.0281563 10.0771 0.0140762ZM39.4588 11.7082C39.912 11.9658 40.2042 12.4261 40.3186 13.0596C40.3525 13.2666 40.3821 13.4988 40.3821 13.5791C40.3821 13.786 40.255 14.3055 40.1661 14.4744C40.0051 14.7743 39.7214 15.0488 39.4291 15.1924C39.1623 15.3233 39.1199 15.3317 38.8192 15.3148C38.527 15.2979 38.4677 15.2768 38.2517 15.1375C37.7053 14.7743 37.4173 14.1957 37.4173 13.4608C37.4173 12.8147 37.7095 12.177 38.1415 11.8771C38.6117 11.5519 39.0733 11.4928 39.4588 11.7082ZM48.959 11.6871C49.6282 12.0038 50.0051 12.7007 49.9374 13.4988C49.8781 14.2337 49.463 14.9178 48.9463 15.1459C48.726 15.2388 48.2008 15.2346 47.9975 15.1375C47.6079 14.9474 47.3029 14.5715 47.1547 14.0943C47.0361 13.71 47.0403 12.9287 47.1674 12.5908C47.485 11.7462 48.2601 11.3534 48.959 11.6871ZM48.2347 17.1815C48.4126 17.2491 48.7218 17.5616 48.815 17.7685C48.9759 18.1275 48.9293 18.4865 48.654 19.0186C48.0441 20.1927 47.2309 21.0373 46.1339 21.6328C45.9052 21.7595 45.7146 21.8313 44.9353 22.0847C44.3338 22.2789 42.6439 22.2029 41.8222 21.9453C41.3309 21.7933 40.6955 21.4892 40.255 21.1978C39.2724 20.5516 38.3745 19.2889 38.2855 18.4358C38.2474 18.043 38.3152 17.7812 38.5227 17.5489C38.8234 17.2068 39.2131 17.1013 39.5901 17.2617C39.8442 17.3715 39.9967 17.5743 40.2127 18.0768C40.4372 18.5963 40.6828 18.9341 41.0005 19.1622C41.2673 19.3522 41.8772 19.6648 42.0932 19.7197C42.1652 19.7366 42.377 19.7957 42.5634 19.8464C42.8599 19.9308 43.0081 19.9435 43.7281 19.9435C44.6176 19.9477 44.7108 19.9308 45.2529 19.6816C45.8755 19.3945 46.405 18.8877 46.8412 18.1444C47.2097 17.5236 47.2987 17.4096 47.5316 17.2617C47.7392 17.1308 48.0187 17.097 48.2347 17.1815Z" fill="#3129A5"/>
</svg>
